<svg width="245" height="95" viewBox="0 0 245 95" fill="none" xmlns="http://www.w3.org/2000/svg">
<path d="M87.8 37.3C80.5 37.3 75.3 42.7 75.3 51C75.3 59.3 80.2 64.6 87.8 64.6C94.9 64.6 100.2 59.6 100.2 51C100.2 42.8 95.1 37.3 87.8 37.3ZM87.8 59.9C83.1 59.9 80.9 56.1 80.9 51C80.9 45.7 83.3 42 87.8 42C92.5 42 94.6001 46 94.6001 51C94.5001 57 91.8 59.9 87.8 59.9Z" fill="#010202"/>
<path d="M118.9 38L113.4 49.6L107.9 38H101.7L110.5 54.4V63.9H116.1V54.4L125.1 38H118.9Z" fill="#010202"/>
<path d="M24 38H17.2L8.30005 49.9V38H2.80005V63.9H8.30005V56.4L11.2 53L18 63.9H24.5L14.9 49.1L24 38Z" fill="#010202"/>
<path d="M64.3 57.2C64.3 59 63.5 60 61.9 60C60.6 60 59.9 59 59.9 57.5V55.4H54.8V57.8C54.8 62 57.6 64.6 61.7 64.6C67.3 64.6 69.9 61.2 69.9 56.5V38H64.3V57.2Z" fill="#010202"/>
<path d="M44.6 54.5C44.6 57.4 42.9 59.8 39.4 59.8C35.9 59.8 34.2 57.5 34.2 54.6V38H28.5V54.6C28.5 61.2 33.5 64.6 39.2 64.6C46 64.6 50.2 61 50.2 54.4V38H44.5V54.5H44.6Z" fill="#010202"/>
<path d="M191.4 38L182.7 63.8H188.4L190.1 58.1H197.9L199.6 63.8H205.4L197 38H191.4ZM191.6 53.4L194.1 44.6L196.5 53.4H191.6Z" fill="#010202"/>
<path d="M133.1 38L124.4 63.8H130.1L131.8 58.1H139.6L141.3 63.8H147.1L138.7 38H133.1ZM133.3 53.4L135.8 44.6L138.2 53.4H133.3Z" fill="#010202"/>
<path d="M165.1 55H164.8L159.4 38H151.6V63.9H156.9V45.1L163 63.9H166.7L173 45.1V63.9H178.2V38H170.6L165.1 55Z" fill="#010202"/>
<path d="M102.7 4.2H97.1001V30H102.7V4.2Z" fill="#010202"/>
<path d="M162 24.4H169.8L171.5 30.1H177.3L169 4.2H163.3L154.6 30H160.3L162 24.4ZM166 10.8L168.4 19.6H163.4L166 10.8Z" fill="#010202"/>
<path d="M128.2 25.1H115.1V4.2H109.5V30.1H128.2V25.1Z" fill="#010202"/>
<path d="M83.7 30.1L92.6001 4.2H86.7L81.1001 22.8L75.8 4.2H69.8L78.1001 30.1H83.7Z" fill="#010202"/>
<path d="M138.1 4.2H132.6V30.1H151.3V25.1H138.1V4.2Z" fill="#010202"/>
<path d="M230.5 0H219.6V18.8H230.5V0Z" fill="#010202"/>
<path d="M208.6 0H197.7V18.8H208.6V0Z" fill="#010202"/>
<path d="M237.7 47.8C241.732 47.8 245 44.5317 245 40.5C245 36.4683 241.732 33.2 237.7 33.2C233.668 33.2 230.4 36.4683 230.4 40.5C230.4 44.5317 233.668 47.8 237.7 47.8Z" fill="#010202"/>
<path d="M28.5001 83.9004C32.2001 83.2004 36.2001 81.8004 39.6001 79.7004C42.7001 81.6004 46.6001 82.9004 50.7001 83.5004C50.8001 83.3004 51.0001 83.0004 51.2001 82.8004C47.1001 82.2004 43.4001 81.0004 40.3001 79.3004C42.6001 77.8004 44.5001 75.9004 45.8001 73.7004C45.9001 73.7004 46.0001 73.6004 46.0001 73.5004L45.4001 73.1004L45.2001 73.2004H35.7001C36.4001 72.4004 37.0001 71.6004 37.5001 70.9004C37.8001 70.9004 37.9001 70.8004 38.0001 70.6004L36.8001 70.4004C35.4001 72.8004 32.5001 75.8004 28.6001 77.8004C28.8001 77.9004 29.0001 78.1004 29.2001 78.3004C31.2001 77.2004 32.9001 75.9004 34.3001 74.7004C35.5001 76.5004 37.1001 78.0004 39.0001 79.2004C35.7001 81.2004 31.8001 82.5004 28.2001 83.1004C28.3001 83.3004 28.5001 83.6004 28.5001 83.9004ZM34.8001 74.1004L35.0001 73.9004H44.7001C43.5001 75.8004 41.7001 77.4004 39.6001 78.8004C37.6001 77.5004 36.0001 75.9004 34.8001 74.1004Z" fill="black"/>
<path d="M21.6001 93.1004H18.5001C17.6001 93.1004 17.4001 92.9004 17.4001 92.1004V77.5004C17.4001 77.4004 17.5001 77.3004 17.5001 77.2004L17.0001 77.1004L16.8001 77.2004L9.4001 77.4004C9.6001 75.2004 9.6001 73.0004 9.6001 70.9004C9.9001 70.9004 10.1001 70.7004 10.1001 70.5004L8.8001 70.4004C8.8001 72.6004 8.8001 75.0004 8.6001 77.3004L0.800102 77.5004L0.900101 78.3004L8.6001 78.1004C8.1001 84.4004 6.2001 90.5004 0.100098 93.6004C0.300098 93.7004 0.600096 94.0004 0.700096 94.1004C7.0001 90.7004 8.8001 84.4004 9.3001 78.0004L16.6001 77.8004V92.0004C16.6001 93.5004 17.0001 93.8004 18.5001 93.8004H21.6001C23.2001 93.8004 23.4001 92.7004 23.5001 88.6004C23.3001 88.5004 23.0001 88.4004 22.8001 88.2004C22.6001 92.3004 22.5001 93.1004 21.6001 93.1004Z" fill="black"/>
<path d="M41.1001 85.9004H51.2001V85.1004H39.9001V82.0004C40.2001 82.0004 40.3001 81.9004 40.3001 81.7004L39.1001 81.6004V85.1004H27.9001V85.9004H37.7001C35.3001 88.9004 31.1001 91.6004 27.5001 92.9004C27.7001 93.1004 27.9001 93.4004 28.0001 93.6004C31.7001 92.1004 36.2001 89.2004 38.6001 85.9004H38.9001V94.2004H39.7001V85.9004H40.0001C42.4001 89.2004 46.8001 92.1004 50.8001 93.5004C50.9001 93.3004 51.2001 93.0004 51.4001 92.8004C47.6001 91.6004 43.5001 88.9004 41.1001 85.9004Z" fill="black"/>
<path d="M75.9001 76.6004V90.5004H66.8001V71.1004C67.1001 71.1004 67.2001 71.0004 67.2001 70.8004L66.0001 70.7004V90.4004H57.2001V77.0004C57.5001 77.0004 57.6001 76.9004 57.6001 76.7004L56.4001 76.6004V93.8004H57.2001V91.3004H75.9001V93.7004H76.7001V77.0004C77.0001 77.0004 77.1001 76.9004 77.1001 76.7004L75.9001 76.6004Z" fill="black"/>
<path d="M49.4001 25.5004C49.6001 25.7004 49.7001 26.0004 49.8001 26.3004C57.5001 24.2004 62.1001 20.4004 64.0001 12.7004C64.1001 12.7004 64.2001 12.6004 64.2001 12.5004L63.5001 12.1004L63.3001 12.2004H45.0001V13.0004H63.1001C61.3001 19.9004 56.8001 23.6004 49.4001 25.5004Z" fill="black"/>
<path d="M62.3001 5.40039H47.6001V6.20039H62.3001V5.40039Z" fill="black"/>
<path d="M20.1001 2.90039C21.2001 4.10039 22.5001 5.80039 23.2001 7.00039L23.8001 6.60039C23.1001 5.30039 21.8001 3.60039 20.6001 2.40039L20.1001 2.90039Z" fill="black"/>
<path d="M34.6001 26.6004V15.2004C34.7001 15.2004 34.9001 15.1004 34.9001 15.0004L34.4001 14.8004C36.4001 13.4004 38.5001 11.6004 40.2001 9.90039C40.3001 10.0004 40.5001 10.0004 40.6001 10.0004C40.8001 10.0004 40.9001 9.90039 41.0001 9.80039L40.0001 9.00039C38.4001 10.7004 36.5001 12.5004 33.9001 14.3004C31.0001 16.4004 27.3001 18.5004 24.1001 20.0004C24.2001 20.2004 24.4001 20.5004 24.5001 20.7004C27.7001 19.1004 31.3001 17.1004 33.7001 15.3004V26.6004H34.6001Z" fill="black"/>
<path d="M20.1001 7.40039C19.4001 6.10039 18.1001 4.40039 16.9001 3.20039L16.4001 3.60039C17.5001 4.80039 18.8001 6.50039 19.5001 7.70039L20.1001 7.40039Z" fill="black"/>
<path d="M3.7001 9.90039H20.0001C19.1001 18.0004 15.4001 23.2004 7.4001 26.0004C7.6001 26.2004 7.8001 26.5004 7.9001 26.7004C16.2001 23.8004 20.0001 18.4004 21.0001 9.60039C21.1001 9.50039 21.2001 9.50039 21.2001 9.40039L20.5001 9.00039H12.1001V4.70039C12.4001 4.70039 12.6001 4.50039 12.7001 4.30039L11.3001 4.20039V9.00039H2.9001V16.9004H3.7001V9.90039Z" fill="black"/>
</svg>
